<?xml version="1.0" standalone="no"?>
<!DOCTYPE svg PUBLIC "-//W3C//DTD SVG 20010904//EN"
 "http://www.w3.org/TR/2001/REC-SVG-20010904/DTD/svg10.dtd">
<svg version="1.0" xmlns="http://www.w3.org/2000/svg"
 width="512.000000pt" height="512.000000pt" viewBox="0 0 512.000000 512.000000"
 preserveAspectRatio="xMidYMid meet">
<metadata>
Created by potrace 1.14, written by Peter Selinger 2001-2017
</metadata>
<g transform="translate(0.000000,512.000000) scale(0.100000,-0.100000)"
fill="#000000" stroke="none">
<path d="M653 4259 c-23 -4 -56 -15 -75 -25 -32 -16 -98 -76 -98 -89 0 -4 -7
-13 -15 -21 -37 -37 -38 -70 -39 -1329 0 -676 3 -1254 7 -1283 11 -78 44 -134
110 -188 24 -20 75 -44 93 -44 10 0 15 -3 12 -6 -4 -3 -35 -7 -70 -9 -110 -5
-176 -47 -232 -148 -29 -52 -91 -197 -100 -232 -1 -5 -13 -32 -26 -60 -13 -27
-23 -56 -22 -62 2 -7 -2 -13 -9 -13 -6 0 -9 -7 -5 -15 3 -8 2 -15 -3 -15 -8 0
-23 -41 -20 -56 0 -4 -4 -10 -10 -13 -5 -4 -12 -19 -15 -35 -3 -16 -10 -32
-16 -36 -7 -4 -12 -11 -12 -16 -1 -13 -7 -29 -39 -109 -16 -38 -29 -75 -29
-82 0 -7 -5 -13 -12 -13 -6 0 -9 -3 -5 -6 3 -4 -1 -20 -9 -37 -32 -60 2 -164
76 -238 88 -87 -144 -79 2490 -77 l2335 3 45 23 c48 25 133 109 124 123 -3 5
-1 9 4 9 11 0 20 28 28 86 5 33 -2 59 -34 135 -22 52 -54 130 -72 174 -17 44
-37 91 -43 105 -6 14 -11 27 -12 30 -5 14 -27 67 -35 85 -25 55 -58 145 -52
145 4 0 1 4 -6 9 -7 4 -14 14 -16 22 -3 21 -56 128 -90 184 -58 94 -114 127
-224 131 -71 2 -102 8 -61 11 33 3 103 41 138 75 43 42 69 94 78 160 5 29 8
609 7 1288 -1 1187 -2 1237 -20 1281 -29 70 -79 125 -143 156 l-56 28 -1890 1
c-1039 0 -1909 -3 -1932 -7z"/>
</g>
</svg>
